User Type,Username,Date,Text
[V],big_dad_e,2010-05-31T07:34Z,"Tack s책 mycket! Muchas gracias! Merci beaucoup! Vielen Dank! La ringrazio molto! Thanks m8!
"
,4tunenoix,2011-05-31T15:44Z,"Thanks man, was looking for this!
Im seeding for sure!"
,kingjoser,2011-10-24T06:19Z,"Looks like good quality. Has English and Italian audio tracks in Stereo and 6 Channel. Has Italian subtitles but not the English subs. Overall pretty good. Thanks! The Blu-Ray of Zombie is coming out in a couple days, see if you can upload that marainos. Thank You"
,kingjoser,2011-10-24T06:23Z,"Also has English Commentary audio track. Here are the specs:Zombi 2 (Fulci) - UNCUT ed Sherik [H264 Ita Eng, Comm, Subs, Chaps].MIRCrew.mkv
Format                           : Matroska
File size                        : 1.80 GiB
Duration                         : 1h 31mn
Overall bit rate                 : 2 814 Kbps
Movie name                       : Zombi 2 - Lucio Fulci - UNCUT Sherik edition (1979)
Encoded date                     : UTC 2010-01-01 15:43:48
Writing application              : mkvmerge v3.0.0 ('Hang up your Hang-Ups') built on Dec 12 2009 19:55:29
Writing library                  : libebml v0.7.7 + libmatroska v0.8.1
Cover                            : Zombie 2 Uncut - Cover (ed Sherik)

Video
ID                               : 1
Format                           : AVC
Format/Info                      : Advanced Video Codec
Format profile                   : High@L3.0
Format settings, CABAC           : Yes
Format settings, ReFrames        : 2 frames
Codec ID                         : V_MPEG4/ISO/AVC
Duration                         : 1h 31mn
Bit rate                         : 1 400 Kbps
Width                            : 720 pixels
Height                           : 304 pixels
Display aspect ratio             : 2.35:1
Frame rate                       : 23.976 fps
Color space                      : YUV
Chroma subsampling               : 4:2:0
Bit depth                        : 8 bits
Scan type                        : Progressive
Bits/(Pixel*Frame)               : 0.267
Stream size                      : 882 MiB (48%)
Title                            : Video
Writing library                  : x264 core 68 r1183M f21daff
Encoding settings                : cabac=1 / ref=2 / deblock=1:0:0 / analyse=0x3:0x113 / me=hex / subme=4 / psy_rd=0.0:0.0 / mixed_ref=0 / me_range=16 / chroma_me=1 / trellis=1 / 8x8dct=1 / cqm=0 / deadzone=21,11 / chroma_qp_offset=0 / threads=1 / nr=0 / decimate=1 / mbaff=0 / bframes=3 / b_pyramid=0 / b_adapt=1 / b_bias=0 / direct=1 / wpredb=1 / keyint=250 / keyint_min=25 / scenecut=40 / rc=2pass / bitrate=1400 / ratetol=1.0 / qcomp=0.60 / qpmin=10 / qpmax=51 / qpstep=4 / cplxblur=20.0 / qblur=0.5 / ip_ratio=1.40 / pb_ratio=1.30 / aq=1:1.00

Audio #1
ID                               : 2
Format                           : AC-3
Format/Info                      : Audio Coding 3
Mode extension                   : CM (complete main)
Codec ID                         : A_AC3
Duration                         : 1h 31mn
Bit rate mode                    : Constant
Bit rate                         : 448 Kbps
Channel(s)                       : 6 channels
Channel positions                : Front: L C R, Side: L R, LFE
Sampling rate                    : 48.0 KHz
Bit depth                        : 16 bits
Compression mode                 : Lossy
Stream size                      : 293 MiB (16%)
Title                            : Ita - Ac3 6ch
Language                         : Italian

Audio #2
ID                               : 3
Format                           : AC-3
Format/Info                      : Audio Coding 3
Mode extension                   : CM (complete main)
Codec ID                         : A_AC3
Duration                         : 1h 31mn
Bit rate mode                    : Constant
Bit rate                         : 448 Kbps
Channel(s)                       : 6 channels
Channel positions                : Front: L C R, Side: L R, LFE
Sampling rate                    : 48.0 KHz
Bit depth                        : 16 bits
Compression mode                 : Lossy
Stream size                      : 293 MiB (16%)
Title                            : Eng - Ac3 6ch
Language                         : English

Audio #3
ID                               : 4
Format                           : AC-3
Format/Info                      : Audio Coding 3
Format profile                   : Dolby Digital
Mode extension                   : CM (complete main)
Codec ID                         : A_AC3
Duration                         : 1h 31mn
Bit rate mode                    : Constant
Bit rate                        "
,kingjoser,2011-10-24T11:48Z,"Well this does have an English Sub but for some reason it doesn't show in any of my Players and I cant access it. Also, the English 2.0 Stereo audio cuts out in a bunch of places for seconds at a time. The 6-channel seems fine. Thanks"
